<?xml version="1.0" encoding="utf-8"?>
<!-- Manifesto © 2016 Noah Mormino -->
<svg version="1.1" id="Layer_1" xmlns="http://www.w3.org/2000/svg" xmlns:xlink="http://www.w3.org/1999/xlink" x="0px" y="0px"
	 viewBox="0 0 202.5 66.6" style="enable-background:new 0 0 202.5 66.6;" xml:space="preserve">
<g>
	<path d="M188,48.4L188,48.4c-1.1-0.2-1.8-1.2-1.6-2.3v0c1.8-13.6,9.8-42.5,10.3-43.5v0c0.3-0.6,1.2-0.4,1.3,0.3v0
		c0.1,1.2-3.9,30.9-7.5,44.1l0,0C190.1,48,189,48.7,188,48.4z"/>
	<g>
		<path d="M190.1,49.6c-2.2,2-4.2,0.1-4.4-0.9c-3.8,3-0.5,6.1-1.3,9.3c-0.3,1.4-2,2.5-2,2.5C185.1,61,192.5,57.7,190.1,49.6z"/>
	</g>
</g>
<g>
	<path d="M23.3,24.1c1.9,3.6,3.9,7.3,5.9,11.1c0.3-0.5,0.7-1.2,1.2-2.2c0.5-1,1.1-2,1.8-3.3s1.4-2.6,2.2-4c0.8-1.4,1.5-2.9,2.3-4.4
		c0.8-1.5,1.6-2.9,2.4-4.4c0.8-1.4,1.5-2.8,2.2-4h0.5c0.3,2.6,0.6,5.1,0.8,7.5c0.3,2.4,0.5,4.8,0.8,7.1c0.3,2.3,0.5,4.6,0.8,6.9
		c0.3,2.3,0.6,4.5,0.9,6.8c-0.3-0.1-0.6-0.1-0.9-0.1c-0.3,0-0.6,0-0.9,0c-0.3,0-0.6,0-0.9,0c-0.3,0-0.6,0-0.9,0.1
		c-0.3-3.6-0.6-7-0.9-10.4c-0.3-3.4-0.7-6.8-1.1-10.3h-0.1c-1.9,3.4-3.7,6.8-5.5,10.1c-1.8,3.3-3.5,6.8-5.1,10.5h-0.4
		c-1.6-3.4-3.3-6.8-5.1-10.2c-1.8-3.4-3.5-6.9-5.3-10.4h-0.1c-0.2,1.7-0.4,3.5-0.6,5.4c-0.2,1.9-0.4,3.9-0.6,5.8
		c-0.2,1.9-0.3,3.7-0.5,5.4c-0.1,1.7-0.2,3.1-0.2,4.1c-0.4-0.1-0.9-0.1-1.4-0.1c-0.5,0-1,0-1.4,0.1c0.3-2.2,0.7-4.5,1.1-6.9
		c0.4-2.4,0.7-4.9,1.1-7.3c0.3-2.4,0.7-4.9,1-7.2c0.3-2.4,0.6-4.6,0.8-6.8h0.7C19.5,16.8,21.4,20.5,23.3,24.1z"/>
	<path d="M53.7,22.1c1-0.3,2.1-0.5,3.1-0.5c1,0,1.9,0.1,2.7,0.4s1.5,0.7,2.1,1.2c0.6,0.5,1,1.2,1.3,1.9c0.3,0.7,0.5,1.6,0.5,2.4
		c0,1.5,0,3.1-0.1,4.6c-0.1,1.5-0.1,3.1-0.1,4.8c0,0.3,0,0.7,0,1c0,0.4,0.1,0.7,0.2,1c0.1,0.3,0.3,0.5,0.5,0.7
		c0.2,0.2,0.5,0.3,0.9,0.3c0.1,0,0.3,0,0.4,0c0.1,0,0.3-0.1,0.4-0.1v0.9c-0.3,0.1-0.7,0.2-1.1,0.3s-0.9,0.1-1.5,0.1
		c-0.9,0-1.5-0.2-2-0.7c-0.5-0.4-0.7-1-0.8-1.7c-1,1-1.9,1.7-2.9,2.1c-0.9,0.5-2.1,0.7-3.5,0.7c-0.7,0-1.3-0.1-2-0.3
		c-0.6-0.2-1.2-0.5-1.7-0.9c-0.5-0.4-0.9-0.9-1.2-1.6c-0.3-0.6-0.5-1.3-0.5-2.1c0-1.6,0.5-2.9,1.5-3.7c1-0.9,2.4-1.5,4.2-1.8
		c1.4-0.2,2.6-0.4,3.4-0.6s1.4-0.4,1.8-0.5c0.4-0.2,0.6-0.4,0.7-0.7c0.1-0.3,0.1-0.6,0.1-1c0-0.7-0.1-1.3-0.2-1.9
		c-0.2-0.6-0.4-1.2-0.8-1.6c-0.3-0.5-0.8-0.8-1.4-1.1s-1.2-0.4-2.1-0.4c-1.1,0-2.1,0.2-3,0.7s-1.6,1.2-2.1,2h-0.4V24
		C51.6,23.1,52.7,22.5,53.7,22.1z M58.8,31.6c-0.6,0.1-1.2,0.2-1.8,0.3c-0.6,0.1-1.2,0.3-1.8,0.5c-0.6,0.2-1.1,0.4-1.6,0.8
		c-0.5,0.3-0.8,0.7-1.1,1.2c-0.3,0.5-0.4,1.1-0.4,1.9c0,1.3,0.4,2.2,1.1,2.9c0.7,0.6,1.5,1,2.4,1c1,0,1.9-0.3,2.8-0.8
		c0.8-0.6,1.5-1.2,1.9-2l0.2-6C59.9,31.3,59.4,31.5,58.8,31.6z"/>
	<path d="M82.2,25.3c-0.8-1-1.9-1.6-3.2-1.6c-1.9,0-3.3,0.6-4.1,1.7c-0.9,1.2-1.3,2.8-1.3,4.9v3.4c0,1.2,0,2.5,0.1,3.8
		s0.1,2.5,0.3,3.6c-0.6-0.1-1.2-0.1-1.8-0.1c-0.6,0-1.2,0-1.8,0.1c0.1-1.1,0.2-2.3,0.3-3.6s0.1-2.6,0.1-3.8v-4.2
		c0-1.2,0-2.5-0.1-3.8s-0.1-2.6-0.3-3.7c0.8,0.1,1.4,0.2,1.8,0.2c0.2,0,0.5,0,0.7-0.1c0.3,0,0.6-0.1,0.9-0.1
		c-0.1,1.1-0.1,2.2-0.1,3.2h0.1c0.8-1.2,1.7-2,2.7-2.7c1.1-0.6,2.3-0.9,3.8-0.9c0.8,0,1.5,0.1,2.3,0.3c0.8,0.2,1.5,0.6,2.1,1.1
		s1.1,1.2,1.5,2.1c0.4,0.9,0.6,2,0.6,3.4c0,1.2,0,2.3-0.1,3.6c-0.1,1.2-0.1,2.5-0.1,3.9v2.6c0,0.4,0,0.9,0,1.3c0,0.4,0,0.8,0.1,1.2
		c-0.5-0.1-1.1-0.1-1.7-0.1c-0.6,0-1.1,0-1.7,0.1c0.1-1.4,0.1-2.8,0.2-4.3c0.1-1.5,0.1-3,0.1-4.6v-2.5
		C83.3,27.9,82.9,26.3,82.2,25.3z"/>
	<path d="M93.7,13.6c0.4-0.4,0.9-0.6,1.5-0.6s1,0.2,1.5,0.6s0.6,0.9,0.6,1.5s-0.2,1-0.6,1.5s-0.9,0.6-1.5,0.6s-1-0.2-1.5-0.6
		s-0.6-0.9-0.6-1.5S93.3,14,93.7,13.6z M93.6,25.8c0-1.3-0.1-2.6-0.3-3.7c0.8,0.1,1.4,0.2,1.8,0.2c0.5,0,1.1-0.1,1.8-0.2
		c-0.1,1.2-0.2,2.4-0.3,3.7s-0.1,2.6-0.1,3.8v4.2c0,1.2,0,2.5,0.1,3.8s0.1,2.5,0.3,3.6c-0.6-0.1-1.2-0.1-1.8-0.1
		c-0.6,0-1.2,0-1.8,0.1c0.1-1.1,0.2-2.3,0.3-3.6s0.1-2.6,0.1-3.8v-4.2C93.7,28.4,93.6,27.1,93.6,25.8z"/>
	<path d="M110.1,13.6c-0.6,0-1.1,0.1-1.5,0.3c-0.4,0.2-0.8,0.5-1,0.9s-0.5,0.8-0.6,1.3c-0.1,0.5-0.2,1-0.2,1.5
		c0,0.5,0.1,1.2,0.2,2.1c0.1,0.9,0.2,1.8,0.4,2.6c0.7,0,1.4,0,2.1,0c0.7,0,1.4,0,2.1,0c0,0.1,0,0.3-0.1,0.4c0,0.1,0,0.3,0,0.4
		c0,0.1,0,0.3,0,0.4c0,0.1,0,0.3,0.1,0.4c-0.7,0-1.4-0.1-2.1-0.1c-0.7,0-1.4,0-2.1,0c0,2.9,0,5.8,0,8.7c0,2.9,0.1,5.8,0.1,8.7
		c-0.3-0.1-0.6-0.1-0.9-0.1s-0.6,0-0.9,0c-0.6,0-1.2,0-1.8,0.1c0.2-2.9,0.3-5.8,0.3-8.7c0-2.9,0-5.8,0-8.8c-0.5,0-1,0-1.5,0
		c-0.5,0-1,0.1-1.5,0.1c0-0.1,0-0.3,0.1-0.4c0-0.1,0-0.3,0-0.4c0-0.1,0-0.3,0-0.4c0-0.1,0-0.3-0.1-0.4c0.5,0,1,0,1.5,0
		c0.5,0,1,0,1.4,0c0-0.8,0.1-1.6,0.2-2.5c0.2-0.9,0.4-1.8,0.7-2.7c0.3-0.9,0.7-1.7,1.1-2.5c0.4-0.8,0.9-1.5,1.5-2
		c0.5-0.5,1.1-0.9,1.8-1.3c0.7-0.4,1.5-0.6,2.3-0.6c0.3,0,0.6,0,0.8,0.1c0,0.5-0.1,1.1-0.1,1.6c0,0.5-0.1,1.1-0.1,1.6l-0.2,0.1
		C111.7,13.8,111,13.6,110.1,13.6z"/>
	<path d="M115.7,24.5c1.6-1.9,3.9-2.8,6.9-2.8c1.4,0,2.7,0.2,3.7,0.7c1,0.4,1.9,1,2.6,1.8c0.7,0.7,1.2,1.6,1.6,2.6
		c0.3,1,0.5,2.1,0.5,3.2c0,0.3,0,0.5,0,0.8c0,0.3,0,0.5-0.1,0.8c-1.5,0-2.9-0.1-4.3-0.1c-1.4,0-2.9,0-4.3,0c-0.9,0-1.8,0-2.6,0
		c-0.9,0-1.8,0.1-2.6,0.1c0,0.1,0,0.3,0,0.6v0.5c0,1,0.2,2,0.5,2.9c0.3,0.9,0.8,1.7,1.4,2.4c0.6,0.7,1.3,1.2,2.2,1.6
		c0.9,0.4,1.9,0.6,3,0.6c0.5,0,1.1-0.1,1.7-0.2c0.6-0.1,1.1-0.3,1.7-0.6c0.5-0.3,1-0.6,1.5-0.9c0.5-0.3,0.9-0.7,1.2-1.1l0.2,0.1
		l-0.2,2c-0.8,0.6-1.8,1.2-3,1.7c-1.2,0.5-2.4,0.7-3.7,0.7c-1.5,0-2.8-0.2-4-0.7c-1.2-0.4-2.2-1.1-3.1-1.9c-0.9-0.8-1.5-1.8-2-3
		c-0.5-1.2-0.7-2.4-0.7-3.7C113.4,29,114.2,26.4,115.7,24.5z M120.2,23.6c-0.7,0.5-1.2,1-1.7,1.7c-0.4,0.7-0.8,1.4-1,2.3
		c-0.2,0.8-0.4,1.6-0.4,2.3c0.8,0,1.7,0.1,2.6,0.1c0.9,0,1.8,0,2.6,0c0.9,0,1.8,0,2.7,0c0.9,0,1.8-0.1,2.7-0.1
		c0-0.7-0.1-1.5-0.2-2.3c-0.1-0.8-0.4-1.6-0.7-2.3c-0.4-0.7-0.9-1.3-1.5-1.7c-0.6-0.5-1.5-0.7-2.5-0.7
		C121.7,23,120.8,23.2,120.2,23.6z"/>
	<path d="M135.6,38.4c0.3,0.3,0.6,0.6,1,0.9c0.4,0.3,0.8,0.5,1.3,0.7c0.5,0.2,1,0.3,1.6,0.3c0.5,0,1-0.1,1.5-0.2s0.9-0.4,1.2-0.7
		c0.4-0.3,0.7-0.7,0.9-1.1c0.2-0.5,0.3-1,0.3-1.6c0-0.8-0.2-1.5-0.7-1.9c-0.5-0.4-1.1-0.8-1.8-1.1c-0.7-0.3-1.5-0.5-2.3-0.7
		c-0.8-0.2-1.6-0.5-2.3-0.9c-0.7-0.4-1.3-0.9-1.8-1.6c-0.5-0.6-0.7-1.5-0.7-2.7c0-0.9,0.1-1.7,0.4-2.4c0.3-0.7,0.7-1.4,1.3-1.9
		c0.6-0.5,1.3-1,2.1-1.3c0.8-0.3,1.8-0.5,2.9-0.5c1,0,1.8,0.1,2.5,0.4c0.7,0.3,1.3,0.5,2,0.7c-0.2,0.4-0.4,0.9-0.6,1.5
		c-0.2,0.6-0.3,1-0.4,1.4h-0.5c-0.2-0.6-0.6-1.2-1.2-1.7c-0.6-0.5-1.4-0.8-2.3-0.8c-0.4,0-0.8,0.1-1.2,0.2c-0.4,0.1-0.8,0.3-1.1,0.6
		c-0.3,0.3-0.6,0.6-0.8,1c-0.2,0.4-0.3,0.9-0.3,1.5c0,0.9,0.2,1.5,0.7,2c0.5,0.5,1.1,0.8,1.8,1.1c0.7,0.3,1.5,0.5,2.3,0.7
		c0.8,0.2,1.6,0.5,2.3,0.8c0.7,0.4,1.3,0.9,1.8,1.5c0.5,0.6,0.7,1.5,0.7,2.7c0,0.8-0.2,1.5-0.5,2.3c-0.3,0.8-0.8,1.4-1.5,2
		c-0.6,0.6-1.4,1.1-2.3,1.4c-0.9,0.3-1.9,0.5-3,0.5c-1.2,0-2.3-0.1-3.1-0.4c-0.8-0.2-1.5-0.5-2.1-0.8c0.2-0.3,0.3-0.8,0.5-1.4
		c0.2-0.6,0.3-1.1,0.3-1.5h0.5C135.1,37.7,135.3,38,135.6,38.4z"/>
	<path d="M154.5,16.7c-0.1,1-0.1,2-0.2,3c0,1-0.1,2-0.1,3c0.3,0,0.8,0,1.7,0c0.8,0,1.7,0,2.6-0.1c0,0.1,0,0.2,0,0.4v0.4v0.4
		c0,0.2,0,0.3,0,0.4c-0.3,0-0.7,0-1.1-0.1c-0.4,0-0.8,0-1.2,0h-2c0,0.1-0.1,0.5-0.1,1.3c0,0.8-0.1,1.6-0.1,2.7c0,1,0,2.1-0.1,3.2
		c0,1.1,0,2.1,0,3c0,0.8,0,1.5,0.1,2.2c0,0.7,0.2,1.4,0.4,2c0.2,0.6,0.5,1,1,1.4c0.4,0.3,1,0.5,1.9,0.5c0.2,0,0.5,0,0.9-0.1
		c0.4-0.1,0.7-0.1,0.9-0.2v1c-0.5,0.1-1,0.2-1.5,0.3c-0.6,0.1-1.1,0.2-1.6,0.2c-1.7,0-2.9-0.4-3.7-1.2c-0.8-0.8-1.2-2.1-1.2-3.7
		c0-0.7,0-1.5,0-2.4c0-0.8,0.1-1.8,0.1-2.8c0-1,0.1-2.1,0.1-3.3c0-1.2,0-2.6,0-4.1h-1.3c-0.2,0-0.4,0-0.7,0c-0.2,0-0.5,0-0.8,0.1
		c0-0.2,0-0.3,0.1-0.5c0-0.1,0-0.3,0-0.5c0-0.1,0-0.3,0-0.4c0-0.1,0-0.3-0.1-0.4c1.2,0.1,2.1,0.1,2.7,0.1c0-0.5,0-1.2-0.1-2
		c0-0.8,0-1.6-0.1-2.5l3.3-1.4H154.5z"/>
	<path d="M161.3,27c0.6-1.3,1.3-2.3,2.3-3.1c0.9-0.8,2-1.4,3.2-1.7c1.2-0.4,2.3-0.5,3.5-0.5c1.2,0,2.4,0.2,3.5,0.5
		c1.2,0.4,2.2,0.9,3.1,1.7c0.9,0.8,1.7,1.8,2.3,3.1c0.6,1.3,0.9,2.8,0.9,4.7c0,1.8-0.3,3.4-0.9,4.7c-0.6,1.3-1.3,2.3-2.3,3.1
		c-0.9,0.8-2,1.4-3.1,1.7c-1.2,0.3-2.3,0.5-3.5,0.5c-1.2,0-2.3-0.2-3.5-0.5s-2.2-0.9-3.2-1.7c-0.9-0.8-1.7-1.8-2.3-3.1
		c-0.6-1.3-0.9-2.8-0.9-4.7C160.4,29.9,160.7,28.3,161.3,27z M164.3,35c0.2,1,0.5,2,1,2.8c0.5,0.8,1.1,1.5,1.9,2s1.8,0.7,3,0.7
		s2.2-0.2,3-0.7c0.8-0.5,1.5-1.1,1.9-2c0.5-0.8,0.8-1.8,1-2.8c0.2-1,0.3-2.1,0.3-3.3c0-1.1-0.1-2.2-0.3-3.3c-0.2-1-0.5-2-1-2.8
		c-0.5-0.8-1.1-1.5-1.9-2c-0.8-0.5-1.8-0.7-3-0.7s-2.2,0.2-3,0.7s-1.5,1.1-1.9,2c-0.5,0.8-0.8,1.8-1,2.8c-0.2,1-0.3,2.1-0.3,3.3
		C164,32.8,164.1,33.9,164.3,35z"/>
</g>
<path d="M4.2,40.5c0,0,0.5,0.5,1.5,1.4c1,0.9,2.5,2.2,4.6,3.6c2.1,1.4,4.7,3,7.8,4.6c3.1,1.5,6.8,3.1,10.9,4.3
	c4.1,1.3,8.6,2.3,13.5,2.9c4.9,0.7,10.1,1.2,15.5,1.2c5.4,0,11-0.4,16.6-1.5c5.6-1,11.2-2.5,16.7-4.4l4.2-1.4l2.1-0.7l2.1-0.6
	c2.8-0.8,5.7-1.5,8.5-2.1c5.7-1.2,11.3-1.9,16.8-2.3c2.8-0.2,5.5-0.3,8.1-0.2c2.7,0,5.3,0.2,7.8,0.4c5.1,0.5,9.8,1.3,14.1,2.4
	c4.3,1.1,8.1,2.3,11.5,3.7c3.3,1.4,6.1,2.7,8.4,4c2.2,1.3,3.9,2.4,5,3.2c1.1,0.8,1.7,1.3,1.7,1.3l-0.2,0.2c0,0-0.6-0.4-1.8-1
	c-1.2-0.7-3-1.6-5.3-2.6c-2.3-1-5.2-2.2-8.5-3.2c-3.3-1.1-7.2-2.1-11.4-2.9c-4.2-0.9-8.8-1.5-13.7-1.9c-1.2-0.1-2.5-0.2-3.7-0.2
	c-1.3,0-2.5-0.1-3.8-0.1c-2.6,0-5.2,0-7.9,0.1c-5.4,0.2-10.9,0.8-16.5,1.8c-2.8,0.5-5.6,1-8.4,1.7l-2.1,0.4L96,53.2l-4.2,1.1
	l-4.2,1.1c-1.4,0.4-2.9,0.6-4.3,1l-2.1,0.5L79,57.2c-1.4,0.3-2.8,0.6-4.2,0.8c-5.6,1-11.3,1.8-16.7,2.2c-5.5,0.4-10.8,0.4-15.9-0.2
	c-5-0.6-9.7-1.7-13.9-3.1c-4.2-1.4-7.9-3.1-11-5c-3.1-1.8-5.7-3.7-7.6-5.3c-2-1.7-3.4-3.1-4.3-4.2c-0.9-1-1.3-1.7-1.3-1.7L4.2,40.5z
	"/>
</svg>
